# xmcd CD database file
#
# Track frame offsets:
#	150
#	11092
#	23196
#	42684
#	59139
#	70623
#	86869
#	97928
#	107981
#	120805
#	134786
#	146535
#	163666
#	174745
#	186737
#	198640
#	222825
#
# Disc length: 3165 seconds
#
# Revision: 0
# Processed by: cddbd v1.5.2PL0 Copyright (c) Steve Scherf et al.
# Submitted via: CDex 1.51
#
DISCID=0a0c5b11
DTITLE=Buzz Cason - Busload Of Love
DYEAR=2009
DGENRE=Country
TTITLE0=Bring It On Home
TTITLE1=To Texas From Tennessee
TTITLE2=Greyhound
TTITLE3=Old Rebels
TTITLE4=Sentimental Attitude
TTITLE5=If I'd Known You Were Back In Town
TTITLE6=Not Just Any Beach
TTITLE7=Donuts
TTITLE8=She Falls For Singers
TTITLE9=You Can't Lie To Me
TTITLE10=Song Man
TTITLE11=Big Whoppin' Love
TTITLE12=Tryin' Not To Think About Me
TTITLE13=Porter's Gone Home
TTITLE14=A Heart To Heart
TTITLE15=Long Time Ago In America
TTITLE16=	 - On This Highway
EXTD=YEAR: 2009
EXTT0=
EXTT1=
EXTT2=
EXTT3=
EXTT4=
EXTT5=
EXTT6=
EXTT7=
EXTT8=
EXTT9=
EXTT10=
EXTT11=
EXTT12=
EXTT13=
EXTT14=
EXTT15=
EXTT16=
PLAYORDER=
